<?xml version="1.0" standalone="no"?>
<!DOCTYPE svg PUBLIC "-//W3C//DTD SVG 20010904//EN"
 "http://www.w3.org/TR/2001/REC-SVG-20010904/DTD/svg10.dtd">
<svg version="1.0" xmlns="http://www.w3.org/2000/svg"
 width="402.000000pt" height="400.000000pt" viewBox="0 0 402.000000 400.000000"
 preserveAspectRatio="xMidYMid meet">

<g transform="translate(0.000000,400.000000) scale(0.100000,-0.100000)"
fill="#000000" stroke="none">
<path d="M609 3910 c-184 -22 -363 -150 -449 -320 -63 -125 -60 -38 -60 -1601
0 -1215 2 -1432 15 -1479 59 -222 232 -389 450 -435 107 -22 2829 -22 2925 1
217 51 396 227 445 437 13 59 15 241 13 1504 -3 1422 -3 1439 -24 1494 -66
183 -211 321 -404 385 -52 18 -127 19 -1450 20 -767 1 -1425 -2 -1461 -6z
m2864 -115 c131 -27 258 -127 319 -250 56 -112 53 -36 53 -1560 0 -1341 -1
-1413 -18 -1470 -50 -163 -169 -278 -342 -332 -57 -17 -129 -18 -1465 -18
l-1405 0 -65 23 c-97 33 -163 75 -216 136 -58 68 -89 122 -112 195 -16 52 -17
153 -17 1476 0 1327 1 1423 17 1468 33 88 66 142 123 199 80 80 149 116 270
142 11 2 643 4 1405 5 1167 0 1396 -2 1453 -14z"/>
<path d="M550 3411 c-66 -65 -120 -123 -120 -127 0 -5 459 -468 1020 -1029
561 -561 1020 -1022 1020 -1025 -1 -3 -61 -65 -135 -139 -74 -74 -142 -150
-151 -169 -36 -76 4 -184 81 -221 28 -13 185 -39 507 -85 523 -75 519 -75 583
-9 66 68 66 62 -4 556 -35 243 -67 459 -71 480 -11 52 -55 112 -95 131 -39 19
-109 20 -148 3 -15 -7 -91 -75 -168 -151 l-141 -139 -1021 1021 c-562 562
-1025 1022 -1030 1022 -4 0 -61 -53 -127 -119z"/>
</g>
</svg>
